<svg version="1.1" id="Layer_1" xmlns="http://www.w3.org/2000/svg" xmlns:xlink="http://www.w3.org/1999/xlink" x="0px" y="0px"
	 width="100%" viewBox="0 0 4926 1028" enable-background="new 0 0 4926 1028" xml:space="preserve">
<path fill="#000000" opacity="1.000000" stroke="none" 
	d="
M3692.000000,1030.000000 
	C2461.333252,1030.000000 1231.666626,1030.000000 2.000000,1030.000000 
	C2.000000,687.333313 2.000000,344.666656 2.000000,2.000000 
	C1644.000000,2.000000 3286.000000,2.000000 4928.000000,2.000000 
	C4928.000000,344.666656 4928.000000,687.333313 4928.000000,1030.000000 
	C4516.333496,1030.000000 4104.666504,1030.000000 3692.000000,1030.000000 
M920.420288,815.384827 
	C931.909058,797.141113 944.195740,779.344299 954.715881,760.558167 
	C974.900635,724.514038 989.709290,686.260620 999.622131,646.047241 
	C1009.443970,606.202881 1015.768677,566.054443 1014.384033,524.878662 
	C1013.846924,508.906219 1015.013367,492.790741 1013.333618,476.960022 
	C1009.657227,442.311462 1002.823242,408.211121 992.507263,374.822968 
	C981.687195,339.803101 967.147705,306.360748 948.724670,274.830353 
	C937.203308,255.111938 923.367920,236.707230 910.042908,218.090988 
	C894.310852,196.111862 875.504456,176.732162 855.714722,158.489258 
	C822.861145,128.203537 786.839539,102.095421 746.687866,82.255333 
	C727.105774,72.579269 707.037231,63.680496 686.598328,56.001816 
	C664.904846,47.851780 642.540649,41.724060 619.654053,37.217976 
	C588.327942,31.050251 556.862000,27.003681 524.981873,26.437071 
	C513.386169,26.230978 501.772675,27.380522 490.161224,27.637419 
	C458.819855,28.330828 428.179108,34.196194 397.905518,41.430386 
	C361.361572,50.162937 326.308502,63.370399 292.853241,80.717056 
	C265.672089,94.810593 239.831772,110.868210 215.555771,129.588333 
	C194.475815,145.843872 174.923843,163.660217 156.535583,182.864670 
	C137.162216,203.097916 119.901581,225.044205 104.502937,248.336975 
	C90.602325,269.363770 78.140099,291.250366 67.810165,314.409729 
	C56.439487,339.902374 46.724716,365.773804 39.266045,392.741516 
	C29.746218,427.161621 23.619204,462.032654 22.634893,497.556183 
	C21.862364,525.436646 22.605452,553.479004 24.763586,581.287292 
	C26.944593,609.390320 34.076786,636.838684 41.737213,663.943054 
	C49.779106,692.397156 60.755375,719.885681 74.058548,746.265991 
	C94.341141,786.486572 119.646797,823.471497 149.896362,856.875793 
	C174.710632,884.278076 202.374451,908.640320 232.673096,929.845947 
	C253.886932,944.693237 276.118073,957.807739 299.445160,969.272949 
	C318.860626,978.815613 338.660858,987.280823 359.102600,993.986755 
	C390.293884,1004.219055 422.001343,1012.551575 454.882996,1015.798279 
	C476.034576,1017.886719 497.137421,1020.254089 518.430786,1019.646057 
	C529.708313,1019.324036 540.989319,1018.948364 552.251587,1018.299255 
	C578.420654,1016.790955 604.406555,1013.788696 629.938843,1007.648438 
	C660.626831,1000.268372 690.714600,990.883301 719.470398,977.852478 
	C745.188477,966.198120 770.028198,952.835205 793.594421,937.093872 
	C816.031433,922.106750 837.214417,905.505249 856.920471,887.243835 
	C880.070435,865.790955 900.727539,841.893616 920.420288,815.384827 
M2433.636719,630.407227 
	C2444.268311,608.797241 2448.032715,585.639771 2448.255859,561.887390 
	C2448.584717,526.901733 2448.759521,491.903107 2448.132568,456.925537 
	C2447.884277,443.082489 2446.338379,429.072876 2443.589844,415.502380 
	C2437.090576,383.414398 2419.309082,359.916962 2388.166992,347.648041 
	C2369.109131,340.139740 2349.081543,336.897949 2328.851074,336.514954 
	C2285.227051,335.688995 2241.582764,335.620544 2197.948730,335.770691 
	C2173.697266,335.854156 2149.423828,336.519806 2125.208496,337.823792 
	C2106.525391,338.829834 2088.371094,343.276794 2071.697266,352.023254 
	C2048.955322,363.952820 2034.944580,383.144623 2027.798096,407.547638 
	C2022.637451,425.170135 2020.540527,443.278198 2020.397583,461.556274 
	C2020.150024,493.210846 2020.127808,524.870544 2020.404907,556.524658 
	C2020.567871,575.148071 2022.873047,593.598633 2028.314819,611.475098 
	C2037.239014,640.791443 2055.901611,660.862976 2085.193359,670.884094 
	C2103.925293,677.292603 2123.183350,680.233826 2142.859375,680.281433 
	C2202.839600,680.426575 2262.820801,680.276855 2322.801514,680.370422 
	C2339.820557,680.396973 2356.527344,678.365662 2373.045654,674.331787 
	C2398.693604,668.068420 2419.467285,655.057251 2433.636719,630.407227 
M1664.339478,646.983398 
	C1664.339478,622.424072 1664.339478,597.864746 1664.339478,572.801453 
	C1666.854980,572.595703 1668.444458,572.352783 1670.034058,572.352112 
	C1718.675537,572.330994 1767.317139,572.403137 1815.958008,572.226746 
	C1820.894287,572.208862 1823.950928,573.988586 1826.739380,577.800049 
	C1833.409180,586.916687 1840.422729,595.781189 1847.252563,604.781616 
	C1864.125244,627.016541 1881.119751,649.161682 1897.734497,671.587891 
	C1902.282837,677.727051 1907.200439,680.799622 1915.180298,680.509888 
	C1931.483643,679.918030 1947.823608,680.333374 1964.148438,680.332031 
	C1969.145874,680.331604 1974.156250,680.551453 1979.137329,680.264893 
	C1985.380615,679.905640 1987.922974,675.873535 1985.698364,670.023743 
	C1985.011841,668.218323 1983.677979,666.609314 1982.441772,665.070007 
	C1959.155884,636.074524 1935.843384,607.100586 1912.527710,578.129089 
	C1909.022827,573.773987 1905.473755,569.454163 1901.595947,564.688843 
	C1907.546509,563.007812 1912.652588,561.715454 1917.663940,560.124146 
	C1941.362793,552.599060 1957.776245,537.437134 1966.321655,513.869385 
	C1970.890137,501.269379 1973.206787,488.262238 1973.583862,474.968567 
	C1973.971069,461.319977 1973.570190,447.650909 1973.697754,433.992523 
	C1973.825928,420.274445 1971.817505,406.847260 1967.778931,393.817078 
	C1959.471802,367.016022 1941.738770,349.616882 1914.675049,341.800995 
	C1897.599854,336.869720 1880.055054,335.766022 1862.471191,335.734619 
	C1778.515015,335.584625 1694.558350,335.660614 1610.601929,335.692291 
	C1607.283203,335.693542 1603.935303,335.848297 1600.651855,336.300537 
	C1592.776123,337.385315 1589.048706,341.394318 1588.364746,349.297119 
	C1588.192993,351.281494 1588.330688,353.292816 1588.330688,355.291779 
	C1588.330200,457.905243 1588.329956,560.518738 1588.331055,663.132202 
	C1588.331055,665.464172 1588.163208,667.813965 1588.388062,670.124817 
	C1589.092896,677.369812 1591.924194,680.223511 1599.183472,680.281372 
	C1617.506226,680.427429 1635.831421,680.422852 1654.154175,680.287354 
	C1661.662842,680.231873 1664.073853,677.699951 1664.295532,669.961060 
	C1664.495850,662.970398 1664.338867,655.969543 1664.339478,646.983398 
M3218.743164,553.226562 
	C3219.043457,566.467041 3220.325439,579.780518 3219.346436,592.925720 
	C3218.502197,604.265808 3209.732422,610.876465 3198.224365,611.638000 
	C3195.901123,611.791748 3193.559570,611.664246 3191.226318,611.664246 
	C3108.900391,611.664490 3026.574707,611.657227 2944.248779,611.688293 
	C2940.596680,611.689697 2936.906006,611.774231 2933.301514,612.293274 
	C2928.410156,612.997681 2925.628174,615.819519 2925.645752,621.091858 
	C2925.702393,638.090088 2925.533691,655.090393 2925.749512,672.086060 
	C2925.814453,677.177063 2928.793945,679.804260 2933.876465,680.288208 
	C2936.188965,680.508301 2938.539307,680.335083 2940.872314,680.335144 
	C2997.867188,680.335693 3054.861816,680.335571 3111.856689,680.335571 
	C3147.520264,680.335571 3183.187500,680.669128 3218.846191,680.254944 
	C3268.581055,679.677368 3296.272217,647.398071 3296.337891,602.763672 
	C3296.362061,586.431824 3296.675781,570.091492 3296.261963,553.770142 
	C3295.685791,531.055481 3289.218262,510.607269 3271.528809,494.988281 
	C3255.972412,481.252777 3237.086670,476.570007 3217.129395,476.453552 
	C3157.136719,476.103485 3097.141113,476.344299 3037.146484,476.298279 
	C3031.827637,476.294189 3026.481201,476.148254 3021.196289,475.599976 
	C3010.509521,474.491302 3003.200684,467.842529 3001.843018,457.375763 
	C3000.823486,449.514557 3000.492188,441.524078 3000.471436,433.589508 
	C3000.460205,429.354492 3001.350098,424.997955 3002.541016,420.902069 
	C3005.670410,410.139832 3012.771729,405.686981 3026.290771,405.683289 
	C3105.616943,405.661591 3184.943115,405.679688 3264.269287,405.647430 
	C3267.571045,405.646088 3270.948975,405.652832 3274.159668,405.004150 
	C3281.943604,403.431580 3283.559570,401.467377 3283.637207,393.570953 
	C3283.765137,380.573395 3283.311523,367.561066 3283.762939,354.577972 
	C3284.344727,337.852264 3282.117188,335.613251 3264.220459,335.630157 
	C3181.894531,335.707855 3099.568604,335.583771 3017.243164,335.766785 
	C3006.995117,335.789551 2996.629883,336.470215 2986.526123,338.117065 
	C2951.537109,343.819977 2929.970947,367.430145 2925.791748,401.288391 
	C2922.895020,424.755493 2922.906006,448.445465 2926.060059,471.866913 
	C2930.435059,504.352570 2948.932861,527.126465 2981.814697,534.117859 
	C2991.153320,536.103394 3000.813232,537.406372 3010.342773,537.515686 
	C3045.001953,537.913452 3079.668213,537.672668 3114.331787,537.672668 
	C3141.329346,537.672668 3168.326904,537.708313 3195.324463,537.655090 
	C3205.892578,537.634216 3214.157227,541.197937 3218.743164,553.226562 
M2723.000000,335.664398 
	C2681.010010,335.664398 2639.019531,335.522766 2597.030762,335.763275 
	C2586.444092,335.823914 2575.744629,336.340729 2565.302734,337.967834 
	C2530.060791,343.459320 2507.962891,366.989807 2503.779785,401.480286 
	C2500.933105,424.951111 2500.911133,448.627411 2504.089355,472.046875 
	C2508.477539,504.381317 2527.066650,527.266602 2559.981689,534.142883 
	C2569.327637,536.095337 2578.984863,537.472595 2588.507080,537.520325 
	C2648.491211,537.821045 2708.477783,537.672424 2768.463379,537.673523 
	C2771.129150,537.673584 2773.803711,537.549866 2776.459473,537.717712 
	C2787.965332,538.445190 2796.377930,545.076172 2797.445557,556.554565 
	C2798.549561,568.419983 2798.553467,580.546204 2797.459961,592.412964 
	C2796.365234,604.294922 2787.799805,610.990845 2775.745605,611.645081 
	C2773.419678,611.771301 2771.081055,611.664307 2768.748291,611.664307 
	C2686.767822,611.664368 2604.787598,611.655334 2522.807129,611.692078 
	C2518.825195,611.693848 2514.798584,611.802795 2510.872803,612.393616 
	C2506.446533,613.059814 2503.680664,615.731689 2503.678223,620.529968 
	C2503.669434,637.858887 2503.588379,655.188721 2503.758057,672.515991 
	C2503.803223,677.127441 2506.770752,679.763611 2511.308105,680.240967 
	C2513.946045,680.518555 2516.634277,680.333496 2519.299805,680.333618 
	C2594.281738,680.336060 2669.263916,680.335571 2744.245850,680.335571 
	C2762.241455,680.335571 2780.251465,680.798401 2798.230225,680.245667 
	C2845.619873,678.788635 2872.143555,649.752686 2874.193115,607.387573 
	C2875.077881,589.101440 2874.817139,570.721252 2874.218994,552.411865 
	C2873.489746,530.082336 2866.759277,510.000488 2849.279297,494.741913 
	C2833.942139,481.353668 2815.375244,476.600769 2795.786865,476.471985 
	C2735.470703,476.075378 2675.150146,476.344299 2614.831299,476.298187 
	C2609.513184,476.294128 2604.166504,476.152527 2598.884033,475.592682 
	C2589.669434,474.615997 2581.996826,468.480194 2580.224121,460.026794 
	C2577.547119,447.261047 2577.089844,434.319275 2580.314941,421.559326 
	C2582.864990,411.469177 2590.008301,406.132751 2600.590820,405.691376 
	C2602.919678,405.594238 2605.255859,405.672760 2607.588623,405.672760 
	C2685.570068,405.672516 2763.551270,405.672760 2841.532715,405.671753 
	C2844.198730,405.671722 2846.927002,406.027496 2849.520020,405.589081 
	C2860.582275,403.718658 2861.998779,400.716064 2861.764893,392.309784 
	C2861.412354,379.655975 2861.304443,366.971649 2861.765137,354.324799 
	C2862.359375,338.016052 2859.981689,335.602325 2842.971680,335.638092 
	C2803.647705,335.720795 2764.323975,335.664368 2723.000000,335.664398 
M4301.670898,399.000153 
	C4301.670410,382.003265 4301.744141,365.005890 4301.639648,348.009644 
	C4301.587891,339.640717 4298.855957,336.750641 4290.555664,335.882843 
	C4287.914551,335.606689 4285.232422,335.679657 4282.568848,335.675262 
	C4270.904297,335.656006 4259.239746,335.662537 4247.575195,335.667938 
	C4228.972656,335.676514 4227.661133,336.976562 4227.661133,355.378387 
	C4227.661133,435.697418 4227.672852,516.016418 4227.622559,596.335449 
	C4227.620117,600.125977 4227.059082,603.916138 4226.793457,607.260071 
	C4219.678223,609.525269 4215.586426,607.711304 4211.954102,602.634766 
	C4203.451660,590.752441 4194.512695,579.179443 4185.644531,567.562378 
	C4147.137207,517.121216 4108.599609,466.703613 4070.057861,416.288971 
	C4054.723877,396.231262 4039.353027,376.201660 4023.993896,356.163330 
	C4016.261475,346.075653 4006.927002,338.143616 3993.739502,337.121826 
	C3967.213135,335.066498 3940.606689,333.843933 3914.169678,337.859741 
	C3899.441650,340.096954 3890.510742,349.391876 3887.851318,364.038422 
	C3886.555420,371.176331 3885.762695,378.512451 3885.751221,385.760529 
	C3885.611572,473.078064 3885.660400,560.395935 3885.660400,647.713684 
	C3885.660400,653.712646 3885.635010,659.711670 3885.665283,665.710510 
	C3885.730713,678.735107 3887.240479,680.301819 3899.852783,680.326660 
	C3913.850342,680.354248 3927.847656,680.333191 3941.845215,680.332947 
	C3959.485352,680.332703 3960.335205,679.498413 3960.336670,661.815002 
	C3960.343262,582.162537 3960.339844,502.510040 3960.339844,422.857574 
	C3960.339844,420.524658 3959.992676,418.123199 3960.435303,415.877380 
	C3960.910156,413.467499 3961.622559,409.736053 3963.137695,409.214355 
	C3965.519531,408.394379 3969.231201,408.956787 3971.346436,410.424011 
	C3974.534668,412.635529 3977.062988,415.954865 3979.473389,419.107910 
	C4025.087402,478.779510 4070.588623,538.537231 4116.238281,598.181702 
	C4133.403809,620.610168 4150.697266,642.947144 4168.312500,665.022400 
	C4175.635742,674.199097 4185.698730,679.886658 4197.541992,680.138123 
	C4220.859863,680.632935 4244.209961,680.778625 4267.517578,680.082458 
	C4284.261230,679.582458 4296.152344,669.233398 4299.449707,653.679626 
	C4300.815918,647.238647 4301.567383,640.541199 4301.579590,633.958496 
	C4301.722168,556.305969 4301.670898,478.653015 4301.670898,399.000153 
M1338.999878,407.672363 
	C1397.978394,407.672363 1456.956787,407.672974 1515.935303,407.670502 
	C1518.600464,407.670380 1521.294189,407.889435 1523.925537,407.583557 
	C1533.906128,406.423187 1536.279297,403.696777 1536.327881,393.417114 
	C1536.387817,380.755402 1536.342285,368.093170 1536.342163,355.431183 
	C1536.341919,336.601593 1535.432739,335.626587 1516.783325,335.674438 
	C1439.829102,335.871918 1362.873291,335.901947 1285.921631,336.473511 
	C1267.000366,336.614044 1248.247314,339.664246 1230.300293,346.069977 
	C1204.481934,355.285156 1186.017700,372.370728 1176.031982,398.164764 
	C1168.749756,416.975220 1165.941650,436.655884 1165.746582,456.647949 
	C1165.421387,489.965820 1165.708740,523.289307 1165.637207,556.610168 
	C1165.599243,574.308655 1167.757690,591.743774 1172.496948,608.746826 
	C1181.134399,639.736145 1200.350708,661.090820 1231.223389,671.335022 
	C1249.320312,677.339905 1267.968018,680.266541 1286.990234,680.291809 
	C1365.294556,680.395874 1443.599121,680.335327 1521.903564,680.335144 
	C1523.569580,680.335144 1525.240479,680.414185 1526.900879,680.316833 
	C1533.343506,679.939087 1536.147339,677.640808 1536.243896,671.214722 
	C1536.498901,654.224792 1536.466675,637.226990 1536.266235,620.235657 
	C1536.190796,613.832764 1532.863525,610.853149 1526.283447,610.360840 
	C1523.963745,610.187256 1521.620605,610.327881 1519.288086,610.327881 
	C1448.647461,610.327576 1378.006714,610.412720 1307.366577,610.224121 
	C1298.122803,610.199463 1288.781128,609.380493 1279.662354,607.862488 
	C1261.629639,604.860535 1249.399902,594.884827 1245.382202,576.399719 
	C1244.120605,570.595520 1242.567749,564.699097 1242.472046,558.823242 
	C1241.973022,528.187805 1241.564575,497.541931 1241.879883,466.907440 
	C1241.977661,457.407288 1243.744507,447.762054 1245.991943,438.484711 
	C1249.276611,424.925781 1257.947510,415.445312 1271.632080,411.858215 
	C1279.891113,409.693298 1288.503540,408.265686 1297.023071,407.845886 
	C1310.319214,407.190735 1323.671387,407.672394 1338.999878,407.672363 
M4546.768066,472.282440 
	C4537.743652,474.076294 4528.758789,477.130707 4519.686523,477.417633 
	C4496.384766,478.154541 4473.043457,477.679077 4449.718262,477.638428 
	C4447.497070,477.634583 4445.276855,477.280853 4442.341797,477.028046 
	C4442.341797,473.180725 4442.341309,469.916107 4442.341309,466.651489 
	C4442.341309,427.665009 4442.368164,388.678467 4442.325195,349.692047 
	C4442.312988,338.642059 4439.954102,335.939453 4429.038574,335.745544 
	C4413.049316,335.461517 4397.051270,335.655426 4381.056641,335.695496 
	C4379.403320,335.699615 4377.733887,335.945526 4376.101562,336.243500 
	C4369.958496,337.364929 4367.298828,339.929749 4366.453125,345.874115 
	C4366.126953,348.162750 4366.329590,350.529816 4366.329590,352.861176 
	C4366.325684,456.491913 4366.322754,560.122681 4366.341309,663.753418 
	C4366.341797,666.740723 4366.151855,669.824280 4366.800781,672.693298 
	C4367.835449,677.266724 4370.511719,680.361145 4375.804199,680.345764 
	C4395.130859,680.289429 4414.458008,680.432861 4433.783203,680.256287 
	C4438.981934,680.208801 4441.608887,677.473633 4442.236328,672.324890 
	C4442.556641,669.696777 4442.339355,667.001343 4442.339355,664.336365 
	C4442.342773,625.016663 4442.341309,585.696899 4442.341309,546.377197 
	C4442.341309,543.127502 4442.341797,539.877869 4442.341797,537.057434 
	C4443.802246,536.375549 4444.374023,535.875305 4444.947266,535.874084 
	C4472.598633,535.814453 4500.251465,535.594788 4527.900391,535.847046 
	C4546.704102,536.018677 4561.552246,543.935059 4572.884766,559.264404 
	C4586.904297,578.229126 4601.653320,596.654297 4616.065918,615.329102 
	C4630.883301,634.529419 4645.629883,653.785339 4660.520020,672.929260 
	C4663.329102,676.541382 4666.077148,680.380615 4671.621094,680.356567 
	C4694.612305,680.256775 4717.605957,680.428772 4740.596191,680.256042 
	C4746.434570,680.212219 4749.281250,676.399414 4747.289062,670.991272 
	C4745.843750,667.066345 4743.114258,663.499207 4740.483398,660.144409 
	C4718.349609,631.923950 4696.311035,603.625000 4673.826172,575.685730 
	C4658.426758,556.550659 4642.577148,537.764404 4626.462891,519.227417 
	C4621.587402,513.619202 4615.153809,509.365479 4609.568359,504.605804 
	C4616.286621,496.967590 4622.976074,490.063354 4628.871094,482.536835 
	C4651.608398,453.505768 4674.100098,424.282257 4696.666504,395.117188 
	C4708.051758,380.402496 4719.329590,365.603485 4730.819824,350.971252 
	C4733.466797,347.600555 4735.376465,344.219391 4733.678223,340.046051 
	C4731.791016,335.407928 4727.314941,335.975769 4723.394043,335.684265 
	C4722.067871,335.585663 4720.729492,335.664276 4719.396484,335.664246 
	C4702.735352,335.663940 4686.053223,336.177765 4669.421387,335.477844 
	C4658.871094,335.033936 4652.079590,339.270752 4646.050293,347.460327 
	C4620.236328,382.525848 4594.227539,417.453217 4567.832520,452.082489 
	C4562.270020,459.380249 4554.780273,465.209320 4546.768066,472.282440 
M3392.993164,660.155945 
	C3396.456299,662.101929 3399.823486,664.248108 3403.398193,665.961243 
	C3426.029297,676.807922 3450.215576,680.249573 3474.974854,680.293152 
	C3545.254639,680.416748 3615.534912,680.336609 3685.814941,680.336121 
	C3688.146484,680.336121 3690.491211,680.486450 3692.807129,680.295227 
	C3698.403076,679.833252 3701.510498,677.132324 3701.582764,671.569153 
	C3701.807129,654.251831 3701.793457,636.928406 3701.591553,619.610535 
	C3701.527588,614.125977 3698.515381,611.205750 3693.004395,610.457703 
	C3690.385254,610.102112 3687.684082,610.329712 3685.020020,610.329529 
	C3621.401611,610.325500 3557.782959,610.415710 3494.165039,610.230469 
	C3484.584229,610.202576 3474.895020,609.579041 3465.451660,608.034119 
	C3445.297852,604.736938 3433.950195,594.595825 3429.834229,574.364929 
	C3427.800781,564.369507 3426.538818,554.035278 3426.492432,543.847290 
	C3426.198975,479.230957 3426.357666,414.612640 3426.329346,349.994995 
	C3426.324463,338.449158 3423.982178,336.000793 3412.353271,335.708069 
	C3403.698486,335.490204 3395.033936,335.617798 3386.374023,335.676636 
	C3378.054688,335.733185 3369.707520,335.518066 3361.424561,336.128021 
	C3353.680420,336.698273 3350.934570,339.937164 3350.360352,347.521698 
	C3350.185059,349.840149 3350.326172,352.182800 3350.326172,354.514343 
	C3350.325928,418.465851 3350.433350,482.417633 3350.252930,546.368652 
	C3350.206055,563.020142 3351.379150,579.537903 3354.382812,595.856995 
	C3359.099121,621.480957 3369.659912,643.880554 3392.993164,660.155945 
M3821.672852,461.000153 
	C3821.672852,424.352936 3821.690918,387.705719 3821.663086,351.058502 
	C3821.653564,338.571320 3819.086182,335.867828 3806.514404,335.705658 
	C3792.857178,335.529480 3779.196045,335.622711 3765.537109,335.692902 
	C3761.885254,335.711670 3758.176025,335.736084 3754.596924,336.356140 
	C3748.418945,337.426605 3746.203369,340.133698 3745.697754,346.424927 
	C3745.538086,348.411438 3745.658936,350.420837 3745.658936,352.419739 
	C3745.658203,456.364471 3745.657959,560.309204 3745.661377,664.253906 
	C3745.661377,666.585510 3745.516357,668.936462 3745.758545,671.244934 
	C3746.419189,677.543396 3748.938965,680.198792 3755.386230,680.262573 
	C3774.374023,680.450562 3793.366211,680.434753 3812.354492,680.267151 
	C3818.051758,680.216919 3820.821777,677.480286 3821.571777,671.879761 
	C3821.922607,669.260071 3821.670898,666.558044 3821.671143,663.893311 
	C3821.673340,596.928955 3821.672852,529.964539 3821.672852,461.000153 
z"/>
<path fill="#FEFEFE" opacity="1.000000" stroke="none" 
	d="
M920.080444,816.014282 
	C900.727539,841.893616 880.070435,865.790955 856.920471,887.243835 
	C837.214417,905.505249 816.031433,922.106750 793.594421,937.093872 
	C770.028198,952.835205 745.188477,966.198120 719.470398,977.852478 
	C690.714600,990.883301 660.626831,1000.268372 629.938843,1007.648438 
	C604.406555,1013.788696 578.420654,1016.790955 552.251587,1018.299255 
	C540.989319,1018.948364 529.708313,1019.324036 518.430786,1019.646057 
	C497.137421,1020.254089 476.034576,1017.886719 454.882996,1015.798279 
	C422.001343,1012.551575 390.293884,1004.219055 359.102600,993.986755 
	C338.660858,987.280823 318.860626,978.815613 299.445160,969.272949 
	C276.118073,957.807739 253.886932,944.693237 232.673096,929.845947 
	C202.374451,908.640320 174.710632,884.278076 149.896362,856.875793 
	C119.646797,823.471497 94.341141,786.486572 74.058548,746.265991 
	C60.755375,719.885681 49.779106,692.397156 41.737213,663.943054 
	C34.076786,636.838684 26.944593,609.390320 24.763586,581.287292 
	C22.605452,553.479004 21.862364,525.436646 22.634893,497.556183 
	C23.619204,462.032654 29.746218,427.161621 39.266045,392.741516 
	C46.724716,365.773804 56.439487,339.902374 67.810165,314.409729 
	C78.140099,291.250366 90.602325,269.363770 104.502937,248.336975 
	C119.901581,225.044205 137.162216,203.097916 156.535583,182.864670 
	C174.923843,163.660217 194.475815,145.843872 215.555771,129.588333 
	C239.831772,110.868210 265.672089,94.810593 292.853241,80.717056 
	C326.308502,63.370399 361.361572,50.162937 397.905518,41.430386 
	C428.179108,34.196194 458.819855,28.330828 490.161224,27.637419 
	C501.772675,27.380522 513.386169,26.230978 524.981873,26.437071 
	C556.862000,27.003681 588.327942,31.050251 619.654053,37.217976 
	C642.540649,41.724060 664.904846,47.851780 686.598328,56.001816 
	C707.037231,63.680496 727.105774,72.579269 746.687866,82.255333 
	C786.839539,102.095421 822.861145,128.203537 855.714722,158.489258 
	C875.504456,176.732162 894.310852,196.111862 910.042908,218.090988 
	C923.367920,236.707230 937.203308,255.111938 948.724670,274.830353 
	C967.147705,306.360748 981.687195,339.803101 992.507263,374.822968 
	C1002.823242,408.211121 1009.657227,442.311462 1013.333618,476.960022 
	C1015.013367,492.790741 1013.846924,508.906219 1014.384033,524.878662 
	C1015.768677,566.054443 1009.443970,606.202881 999.622131,646.047241 
	C989.709290,686.260620 974.900635,724.514038 954.715881,760.558167 
	C944.195740,779.344299 931.909058,797.141113 920.080444,816.014282 
M462.185608,637.810059 
	C427.774445,637.810059 393.363251,637.810059 358.264709,637.810059 
	C358.264709,642.250488 358.264709,645.511841 358.264709,648.773132 
	C358.264709,677.672729 358.298950,706.572510 358.216522,735.471863 
	C358.207367,738.684875 357.534088,741.896057 355.773773,746.274414 
	C320.629944,746.274414 285.486145,746.274414 250.159836,746.274414 
	C250.159836,783.295349 250.159836,819.058960 250.159836,855.047852 
	C286.369202,855.047852 322.071564,855.047852 357.881653,855.047852 
	C358.050629,853.120056 358.264801,851.811157 358.265564,850.502136 
	C358.284790,817.576477 358.304901,784.650757 358.230896,751.725281 
	C358.225861,749.476807 357.485840,747.230103 358.885437,746.171875 
	C394.888184,746.171875 430.890930,746.171875 467.494019,746.171875 
	C467.494019,731.118164 467.556976,717.228699 467.479370,703.339966 
	C467.360809,682.122742 467.145172,660.906006 466.808319,638.254761 
	C465.881073,638.238831 464.953827,638.222839 462.185608,637.810059 
M576.631531,528.271423 
	C612.496399,528.271423 648.361206,528.271423 685.259399,528.271423 
	C685.259399,524.555969 685.259460,521.310364 685.259460,518.064758 
	C685.259399,488.787537 685.207703,459.510101 685.336365,430.233429 
	C685.349792,427.196594 686.434204,424.164520 688.425598,420.028748 
	C723.539429,419.950531 758.653259,419.872345 793.395508,419.794952 
	C793.395508,346.408936 793.395508,274.374786 793.395508,201.936752 
	C781.724854,201.936752 770.769043,201.892899 759.813660,201.945740 
	C735.867126,202.061249 711.920837,202.225891 686.797546,202.120438 
	C686.510315,202.748749 686.223083,203.377045 685.321655,205.791367 
	C685.295227,274.438568 685.244690,343.085785 685.319641,411.732849 
	C685.323120,414.901733 686.451721,418.069397 685.132751,420.202728 
	C649.062561,420.202728 612.992432,420.202728 576.144592,420.202728 
	C576.144592,424.261658 576.144592,427.512360 576.144592,430.763062 
	C576.144592,459.654175 576.174500,488.545349 576.102905,517.436279 
	C576.094849,520.683899 575.512390,523.930115 573.945190,528.481934 
	C540.734619,528.524414 507.523987,528.589600 474.313507,528.546875 
	C472.512421,528.544556 470.712555,527.639160 467.645813,525.836609 
	C467.548462,490.675903 467.451111,455.515228 467.353668,420.329956 
	C464.775269,420.116455 463.456635,419.912628 462.137909,419.911896 
	C429.165009,419.893555 396.192078,419.882080 363.219269,419.932678 
	C361.267609,419.935669 359.316772,420.467590 358.169830,418.931732 
	C358.169830,346.833252 358.169830,274.734772 358.169830,202.621246 
	C321.452637,202.621246 285.736053,202.621246 250.359833,202.621246 
	C250.359833,275.346619 250.359833,347.387268 250.359833,419.915253 
	C272.640167,419.915253 294.230194,419.853455 315.819641,419.937408 
	C329.778198,419.991699 343.735931,420.259277 358.229980,422.092133 
	C358.268036,457.454529 358.306061,492.816925 358.343964,528.044861 
	C360.740967,528.363831 361.721771,528.607666 362.702759,528.608459 
	C395.589966,528.635315 428.477234,528.672852 461.364166,528.579834 
	C463.912933,528.572632 466.458984,527.624878 467.865143,528.908630 
	C467.797272,564.545532 467.725037,600.182373 467.707184,635.819275 
	C467.706940,636.305908 468.393066,636.792969 469.151093,637.801880 
	C472.048737,637.801880 475.341095,637.801941 478.633453,637.801941 
	C507.620544,637.801941 536.607727,637.778137 565.594666,637.834656 
	C568.878296,637.841064 572.160950,638.299133 576.079651,640.251953 
	C576.079651,675.439392 576.079651,710.626892 576.079651,746.720764 
	C613.089478,746.720764 648.883850,746.720764 685.525146,746.720764 
	C685.525146,783.496826 685.525146,819.362854 685.525146,855.147339 
	C708.783508,856.881287 786.603760,856.130737 793.729431,854.176758 
	C795.444824,826.881897 794.645020,754.274170 792.342834,746.156250 
	C757.041443,746.156250 721.529053,746.156250 684.925354,746.156250 
	C684.925354,709.716064 684.925354,673.982971 684.925354,638.184265 
	C682.520508,637.987549 681.205505,637.786743 679.890442,637.786011 
	C647.249634,637.767761 614.608704,637.749939 581.968018,637.815125 
	C579.709778,637.819641 577.452759,638.470459 576.035645,636.847168 
	C576.077332,602.472473 576.140747,568.097778 576.110901,533.723145 
	C576.108948,531.482422 575.391541,529.242371 576.631531,528.271423 
z"/>
<path fill="#FDFDFD" opacity="1.000000" stroke="none" 
	d="
M2433.268066,631.049805 
	C2419.467285,655.057251 2398.693604,668.068420 2373.045654,674.331787 
	C2356.527344,678.365662 2339.820557,680.396973 2322.801514,680.370422 
	C2262.820801,680.276855 2202.839600,680.426575 2142.859375,680.281433 
	C2123.183350,680.233826 2103.925293,677.292603 2085.193359,670.884094 
	C2055.901611,660.862976 2037.239014,640.791443 2028.314819,611.475098 
	C2022.873047,593.598633 2020.567871,575.148071 2020.404907,556.524658 
	C2020.127808,524.870544 2020.150024,493.210846 2020.397583,461.556274 
	C2020.540527,443.278198 2022.637451,425.170135 2027.798096,407.547638 
	C2034.944580,383.144623 2048.955322,363.952820 2071.697266,352.023254 
	C2088.371094,343.276794 2106.525391,338.829834 2125.208496,337.823792 
	C2149.423828,336.519806 2173.697266,335.854156 2197.948730,335.770691 
	C2241.582764,335.620544 2285.227051,335.688995 2328.851074,336.514954 
	C2349.081543,336.897949 2369.109131,340.139740 2388.166992,347.648041 
	C2419.309082,359.916962 2437.090576,383.414398 2443.589844,415.502380 
	C2446.338379,429.072876 2447.884277,443.082489 2448.132568,456.925537 
	C2448.759521,491.903107 2448.584717,526.901733 2448.255859,561.887390 
	C2448.032715,585.639771 2444.268311,608.797241 2433.268066,631.049805 
M2369.532227,440.129456 
	C2364.842285,420.714111 2352.254639,410.061066 2332.775635,407.225525 
	C2327.544434,406.464020 2322.245605,405.744232 2316.976318,405.733948 
	C2261.997314,405.626495 2207.016846,405.494720 2152.040039,405.849579 
	C2143.552002,405.904388 2134.935791,407.803528 2126.634277,409.873779 
	C2114.075928,413.005524 2106.216064,421.521973 2101.936035,433.685913 
	C2097.685547,445.765167 2096.660889,458.335327 2096.457031,470.892914 
	C2096.051270,495.876862 2096.011230,520.878418 2096.495361,545.859558 
	C2096.693115,556.062500 2097.957275,566.368469 2099.952637,576.385254 
	C2103.372803,593.554565 2113.573486,605.008850 2131.238037,608.403625 
	C2139.651611,610.020508 2148.256592,611.477661 2156.783691,611.527100 
	C2206.763184,611.816956 2256.745361,611.744568 2306.726074,611.594849 
	C2314.989746,611.570129 2323.306396,610.991211 2331.501465,609.923523 
	C2352.114990,607.237793 2364.942627,596.048950 2369.367676,577.138306 
	C2370.570312,571.998840 2371.520264,566.673828 2371.599609,561.419006 
	C2372.017822,533.781128 2372.405518,506.136353 2372.200928,478.498444 
	C2372.110352,466.259064 2370.599365,454.030182 2369.532227,440.129456 
z"/>
<path fill="#FEFEFE" opacity="1.000000" stroke="none" 
	d="
M1664.339478,647.978271 
	C1664.338867,655.969543 1664.495850,662.970398 1664.295532,669.961060 
	C1664.073853,677.699951 1661.662842,680.231873 1654.154175,680.287354 
	C1635.831421,680.422852 1617.506226,680.427429 1599.183472,680.281372 
	C1591.924194,680.223511 1589.092896,677.369812 1588.388062,670.124817 
	C1588.163208,667.813965 1588.331055,665.464172 1588.331055,663.132202 
	C1588.329956,560.518738 1588.330200,457.905243 1588.330688,355.291779 
	C1588.330688,353.292816 1588.192993,351.281494 1588.364746,349.297119 
	C1589.048706,341.394318 1592.776123,337.385315 1600.651855,336.300537 
	C1603.935303,335.848297 1607.283203,335.693542 1610.601929,335.692291 
	C1694.558350,335.660614 1778.515015,335.584625 1862.471191,335.734619 
	C1880.055054,335.766022 1897.599854,336.869720 1914.675049,341.800995 
	C1941.738770,349.616882 1959.471802,367.016022 1967.778931,393.817078 
	C1971.817505,406.847260 1973.825928,420.274445 1973.697754,433.992523 
	C1973.570190,447.650909 1973.971069,461.319977 1973.583862,474.968567 
	C1973.206787,488.262238 1970.890137,501.269379 1966.321655,513.869385 
	C1957.776245,537.437134 1941.362793,552.599060 1917.663940,560.124146 
	C1912.652588,561.715454 1907.546509,563.007812 1901.595947,564.688843 
	C1905.473755,569.454163 1909.022827,573.773987 1912.527710,578.129089 
	C1935.843384,607.100586 1959.155884,636.074524 1982.441772,665.070007 
	C1983.677979,666.609314 1985.011841,668.218323 1985.698364,670.023743 
	C1987.922974,675.873535 1985.380615,679.905640 1979.137329,680.264893 
	C1974.156250,680.551453 1969.145874,680.331604 1964.148438,680.332031 
	C1947.823608,680.333374 1931.483643,679.918030 1915.180298,680.509888 
	C1907.200439,680.799622 1902.282837,677.727051 1897.734497,671.587891 
	C1881.119751,649.161682 1864.125244,627.016541 1847.252563,604.781616 
	C1840.422729,595.781189 1833.409180,586.916687 1826.739380,577.800049 
	C1823.950928,573.988586 1820.894287,572.208862 1815.958008,572.226746 
	C1767.317139,572.403137 1718.675537,572.330994 1670.034058,572.352112 
	C1668.444458,572.352783 1666.854980,572.595703 1664.339478,572.801453 
	C1664.339478,597.864746 1664.339478,622.424072 1664.339478,647.978271 
M1756.999878,511.681030 
	C1785.305176,511.681030 1813.611084,511.782623 1841.915405,511.617828 
	C1850.179199,511.569702 1858.483398,511.156250 1866.689941,510.217987 
	C1882.108887,508.455048 1893.524536,498.647797 1895.602051,483.061707 
	C1897.519409,468.679352 1898.209351,453.883850 1897.190186,439.428925 
	C1896.143066,424.578339 1889.876831,411.596161 1873.675659,407.116272 
	C1867.989014,405.543854 1861.960815,404.455170 1856.084473,404.436371 
	C1796.144653,404.244446 1736.203857,404.309692 1676.263428,404.327148 
	C1664.847900,404.330475 1664.345703,404.830688 1664.334961,416.146973 
	C1664.307495,445.118164 1664.325684,474.089447 1664.325684,503.060669 
	C1664.325684,505.623901 1664.325684,508.187164 1664.325684,511.681030 
	C1695.235352,511.681030 1725.117554,511.681030 1756.999878,511.681030 
z"/>
<path fill="#FDFDFD" opacity="1.000000" stroke="none" 
	d="
M3218.514648,552.437195 
	C3214.157227,541.197937 3205.892578,537.634216 3195.324463,537.655090 
	C3168.326904,537.708313 3141.329346,537.672668 3114.331787,537.672668 
	C3079.668213,537.672668 3045.001953,537.913452 3010.342773,537.515686 
	C3000.813232,537.406372 2991.153320,536.103394 2981.814697,534.117859 
	C2948.932861,527.126465 2930.435059,504.352570 2926.060059,471.866913 
	C2922.906006,448.445465 2922.895020,424.755493 2925.791748,401.288391 
	C2929.970947,367.430145 2951.537109,343.819977 2986.526123,338.117065 
	C2996.629883,336.470215 3006.995117,335.789551 3017.243164,335.766785 
	C3099.568604,335.583771 3181.894531,335.707855 3264.220459,335.630157 
	C3282.117188,335.613251 3284.344727,337.852264 3283.762939,354.577972 
	C3283.311523,367.561066 3283.765137,380.573395 3283.637207,393.570953 
	C3283.559570,401.467377 3281.943604,403.431580 3274.159668,405.004150 
	C3270.948975,405.652832 3267.571045,405.646088 3264.269287,405.647430 
	C3184.943115,405.679688 3105.616943,405.661591 3026.290771,405.683289 
	C3012.771729,405.686981 3005.670410,410.139832 3002.541016,420.902069 
	C3001.350098,424.997955 3000.460205,429.354492 3000.471436,433.589508 
	C3000.492188,441.524078 3000.823486,449.514557 3001.843018,457.375763 
	C3003.200684,467.842529 3010.509521,474.491302 3021.196289,475.599976 
	C3026.481201,476.148254 3031.827637,476.294189 3037.146484,476.298279 
	C3097.141113,476.344299 3157.136719,476.103485 3217.129395,476.453552 
	C3237.086670,476.570007 3255.972412,481.252777 3271.528809,494.988281 
	C3289.218262,510.607269 3295.685791,531.055481 3296.261963,553.770142 
	C3296.675781,570.091492 3296.362061,586.431824 3296.337891,602.763672 
	C3296.272217,647.398071 3268.581055,679.677368 3218.846191,680.254944 
	C3183.187500,680.669128 3147.520264,680.335571 3111.856689,680.335571 
	C3054.861816,680.335571 2997.867188,680.335693 2940.872314,680.335144 
	C2938.539307,680.335083 2936.188965,680.508301 2933.876465,680.288208 
	C2928.793945,679.804260 2925.814453,677.177063 2925.749512,672.086060 
	C2925.533691,655.090393 2925.702393,638.090088 2925.645752,621.091858 
	C2925.628174,615.819519 2928.410156,612.997681 2933.301514,612.293274 
	C2936.906006,611.774231 2940.596680,611.689697 2944.248779,611.688293 
	C3026.574707,611.657227 3108.900391,611.664490 3191.226318,611.664246 
	C3193.559570,611.664246 3195.901123,611.791748 3198.224365,611.638000 
	C3209.732422,610.876465 3218.502197,604.265808 3219.346436,592.925720 
	C3220.325439,579.780518 3219.043457,566.467041 3218.514648,552.437195 
z"/>
<path fill="#FDFDFD" opacity="1.000000" stroke="none" 
	d="
M2724.000000,335.664368 
	C2764.323975,335.664368 2803.647705,335.720795 2842.971680,335.638092 
	C2859.981689,335.602325 2862.359375,338.016052 2861.765137,354.324799 
	C2861.304443,366.971649 2861.412354,379.655975 2861.764893,392.309784 
	C2861.998779,400.716064 2860.582275,403.718658 2849.520020,405.589081 
	C2846.927002,406.027496 2844.198730,405.671722 2841.532715,405.671753 
	C2763.551270,405.672760 2685.570068,405.672516 2607.588623,405.672760 
	C2605.255859,405.672760 2602.919678,405.594238 2600.590820,405.691376 
	C2590.008301,406.132751 2582.864990,411.469177 2580.314941,421.559326 
	C2577.089844,434.319275 2577.547119,447.261047 2580.224121,460.026794 
	C2581.996826,468.480194 2589.669434,474.615997 2598.884033,475.592682 
	C2604.166504,476.152527 2609.513184,476.294128 2614.831299,476.298187 
	C2675.150146,476.344299 2735.470703,476.075378 2795.786865,476.471985 
	C2815.375244,476.600769 2833.942139,481.353668 2849.279297,494.741913 
	C2866.759277,510.000488 2873.489746,530.082336 2874.218994,552.411865 
	C2874.817139,570.721252 2875.077881,589.101440 2874.193115,607.387573 
	C2872.143555,649.752686 2845.619873,678.788635 2798.230225,680.245667 
	C2780.251465,680.798401 2762.241455,680.335571 2744.245850,680.335571 
	C2669.263916,680.335571 2594.281738,680.336060 2519.299805,680.333618 
	C2516.634277,680.333496 2513.946045,680.518555 2511.308105,680.240967 
	C2506.770752,679.763611 2503.803223,677.127441 2503.758057,672.515991 
	C2503.588379,655.188721 2503.669434,637.858887 2503.678223,620.529968 
	C2503.680664,615.731689 2506.446533,613.059814 2510.872803,612.393616 
	C2514.798584,611.802795 2518.825195,611.693848 2522.807129,611.692078 
	C2604.787598,611.655334 2686.767822,611.664368 2768.748291,611.664307 
	C2771.081055,611.664307 2773.419678,611.771301 2775.745605,611.645081 
	C2787.799805,610.990845 2796.365234,604.294922 2797.459961,592.412964 
	C2798.553467,580.546204 2798.549561,568.419983 2797.445557,556.554565 
	C2796.377930,545.076172 2787.965332,538.445190 2776.459473,537.717712 
	C2773.803711,537.549866 2771.129150,537.673584 2768.463379,537.673523 
	C2708.477783,537.672424 2648.491211,537.821045 2588.507080,537.520325 
	C2578.984863,537.472595 2569.327637,536.095337 2559.981689,534.142883 
	C2527.066650,527.266602 2508.477539,504.381317 2504.089355,472.046875 
	C2500.911133,448.627411 2500.933105,424.951111 2503.779785,401.480286 
	C2507.962891,366.989807 2530.060791,343.459320 2565.302734,337.967834 
	C2575.744629,336.340729 2586.444092,335.823914 2597.030762,335.763275 
	C2639.019531,335.522766 2681.010010,335.664398 2724.000000,335.664368 
z"/>
<path fill="#FEFEFE" opacity="1.000000" stroke="none" 
	d="
M4301.670898,400.000183 
	C4301.670898,478.653015 4301.722168,556.305969 4301.579590,633.958496 
	C4301.567383,640.541199 4300.815918,647.238647 4299.449707,653.679626 
	C4296.152344,669.233398 4284.261230,679.582458 4267.517578,680.082458 
	C4244.209961,680.778625 4220.859863,680.632935 4197.541992,680.138123 
	C4185.698730,679.886658 4175.635742,674.199097 4168.312500,665.022400 
	C4150.697266,642.947144 4133.403809,620.610168 4116.238281,598.181702 
	C4070.588623,538.537231 4025.087402,478.779510 3979.473389,419.107910 
	C3977.062988,415.954865 3974.534668,412.635529 3971.346436,410.424011 
	C3969.231201,408.956787 3965.519531,408.394379 3963.137695,409.214355 
	C3961.622559,409.736053 3960.910156,413.467499 3960.435303,415.877380 
	C3959.992676,418.123199 3960.339844,420.524658 3960.339844,422.857574 
	C3960.339844,502.510040 3960.343262,582.162537 3960.336670,661.815002 
	C3960.335205,679.498413 3959.485352,680.332703 3941.845215,680.332947 
	C3927.847656,680.333191 3913.850342,680.354248 3899.852783,680.326660 
	C3887.240479,680.301819 3885.730713,678.735107 3885.665283,665.710510 
	C3885.635010,659.711670 3885.660400,653.712646 3885.660400,647.713684 
	C3885.660400,560.395935 3885.611572,473.078064 3885.751221,385.760529 
	C3885.762695,378.512451 3886.555420,371.176331 3887.851318,364.038422 
	C3890.510742,349.391876 3899.441650,340.096954 3914.169678,337.859741 
	C3940.606689,333.843933 3967.213135,335.066498 3993.739502,337.121826 
	C4006.927002,338.143616 4016.261475,346.075653 4023.993896,356.163330 
	C4039.353027,376.201660 4054.723877,396.231262 4070.057861,416.288971 
	C4108.599609,466.703613 4147.137207,517.121216 4185.644531,567.562378 
	C4194.512695,579.179443 4203.451660,590.752441 4211.954102,602.634766 
	C4215.586426,607.711304 4219.678223,609.525269 4226.793457,607.260071 
	C4227.059082,603.916138 4227.620117,600.125977 4227.622559,596.335449 
	C4227.672852,516.016418 4227.661133,435.697418 4227.661133,355.378387 
	C4227.661133,336.976562 4228.972656,335.676514 4247.575195,335.667938 
	C4259.239746,335.662537 4270.904297,335.656006 4282.568848,335.675262 
	C4285.232422,335.679657 4287.914551,335.606689 4290.555664,335.882843 
	C4298.855957,336.750641 4301.587891,339.640717 4301.639648,348.009644 
	C4301.744141,365.005890 4301.670410,382.003265 4301.670898,400.000183 
z"/>
<path fill="#FDFDFD" opacity="1.000000" stroke="none" 
	d="
M1337.999756,407.672363 
	C1323.671387,407.672394 1310.319214,407.190735 1297.023071,407.845886 
	C1288.503540,408.265686 1279.891113,409.693298 1271.632080,411.858215 
	C1257.947510,415.445312 1249.276611,424.925781 1245.991943,438.484711 
	C1243.744507,447.762054 1241.977661,457.407288 1241.879883,466.907440 
	C1241.564575,497.541931 1241.973022,528.187805 1242.472046,558.823242 
	C1242.567749,564.699097 1244.120605,570.595520 1245.382202,576.399719 
	C1249.399902,594.884827 1261.629639,604.860535 1279.662354,607.862488 
	C1288.781128,609.380493 1298.122803,610.199463 1307.366577,610.224121 
	C1378.006714,610.412720 1448.647461,610.327576 1519.288086,610.327881 
	C1521.620605,610.327881 1523.963745,610.187256 1526.283447,610.360840 
	C1532.863525,610.853149 1536.190796,613.832764 1536.266235,620.235657 
	C1536.466675,637.226990 1536.498901,654.224792 1536.243896,671.214722 
	C1536.147339,677.640808 1533.343506,679.939087 1526.900879,680.316833 
	C1525.240479,680.414185 1523.569580,680.335144 1521.903564,680.335144 
	C1443.599121,680.335327 1365.294556,680.395874 1286.990234,680.291809 
	C1267.968018,680.266541 1249.320312,677.339905 1231.223389,671.335022 
	C1200.350708,661.090820 1181.134399,639.736145 1172.496948,608.746826 
	C1167.757690,591.743774 1165.599243,574.308655 1165.637207,556.610168 
	C1165.708740,523.289307 1165.421387,489.965820 1165.746582,456.647949 
	C1165.941650,436.655884 1168.749756,416.975220 1176.031982,398.164764 
	C1186.017700,372.370728 1204.481934,355.285156 1230.300293,346.069977 
	C1248.247314,339.664246 1267.000366,336.614044 1285.921631,336.473511 
	C1362.873291,335.901947 1439.829102,335.871918 1516.783325,335.674438 
	C1535.432739,335.626587 1536.341919,336.601593 1536.342163,355.431183 
	C1536.342285,368.093170 1536.387817,380.755402 1536.327881,393.417114 
	C1536.279297,403.696777 1533.906128,406.423187 1523.925537,407.583557 
	C1521.294189,407.889435 1518.600464,407.670380 1515.935303,407.670502 
	C1456.956787,407.672974 1397.978394,407.672363 1337.999756,407.672363 
z"/>
<path fill="#FDFDFD" opacity="1.000000" stroke="none" 
	d="
M4547.473633,471.998779 
	C4554.780273,465.209320 4562.270020,459.380249 4567.832520,452.082489 
	C4594.227539,417.453217 4620.236328,382.525848 4646.050293,347.460327 
	C4652.079590,339.270752 4658.871094,335.033936 4669.421387,335.477844 
	C4686.053223,336.177765 4702.735352,335.663940 4719.396484,335.664246 
	C4720.729492,335.664276 4722.067871,335.585663 4723.394043,335.684265 
	C4727.314941,335.975769 4731.791016,335.407928 4733.678223,340.046051 
	C4735.376465,344.219391 4733.466797,347.600555 4730.819824,350.971252 
	C4719.329590,365.603485 4708.051758,380.402496 4696.666504,395.117188 
	C4674.100098,424.282257 4651.608398,453.505768 4628.871094,482.536835 
	C4622.976074,490.063354 4616.286621,496.967590 4609.568359,504.605804 
	C4615.153809,509.365479 4621.587402,513.619202 4626.462891,519.227417 
	C4642.577148,537.764404 4658.426758,556.550659 4673.826172,575.685730 
	C4696.311035,603.625000 4718.349609,631.923950 4740.483398,660.144409 
	C4743.114258,663.499207 4745.843750,667.066345 4747.289062,670.991272 
	C4749.281250,676.399414 4746.434570,680.212219 4740.596191,680.256042 
	C4717.605957,680.428772 4694.612305,680.256775 4671.621094,680.356567 
	C4666.077148,680.380615 4663.329102,676.541382 4660.520020,672.929260 
	C4645.629883,653.785339 4630.883301,634.529419 4616.065918,615.329102 
	C4601.653320,596.654297 4586.904297,578.229126 4572.884766,559.264404 
	C4561.552246,543.935059 4546.704102,536.018677 4527.900391,535.847046 
	C4500.251465,535.594788 4472.598633,535.814453 4444.947266,535.874084 
	C4444.374023,535.875305 4443.802246,536.375549 4442.341797,537.057434 
	C4442.341797,539.877869 4442.341309,543.127502 4442.341309,546.377197 
	C4442.341309,585.696899 4442.342773,625.016663 4442.339355,664.336365 
	C4442.339355,667.001343 4442.556641,669.696777 4442.236328,672.324890 
	C4441.608887,677.473633 4438.981934,680.208801 4433.783203,680.256287 
	C4414.458008,680.432861 4395.130859,680.289429 4375.804199,680.345764 
	C4370.511719,680.361145 4367.835449,677.266724 4366.800781,672.693298 
	C4366.151855,669.824280 4366.341797,666.740723 4366.341309,663.753418 
	C4366.322754,560.122681 4366.325684,456.491913 4366.329590,352.861176 
	C4366.329590,350.529816 4366.126953,348.162750 4366.453125,345.874115 
	C4367.298828,339.929749 4369.958496,337.364929 4376.101562,336.243500 
	C4377.733887,335.945526 4379.403320,335.699615 4381.056641,335.695496 
	C4397.051270,335.655426 4413.049316,335.461517 4429.038574,335.745544 
	C4439.954102,335.939453 4442.312988,338.642059 4442.325195,349.692047 
	C4442.368164,388.678467 4442.341309,427.665009 4442.341309,466.651489 
	C4442.341309,469.916107 4442.341797,473.180725 4442.341797,477.028046 
	C4445.276855,477.280853 4447.497070,477.634583 4449.718262,477.638428 
	C4473.043457,477.679077 4496.384766,478.154541 4519.686523,477.417633 
	C4528.758789,477.130707 4537.743652,474.076294 4547.473633,471.998779 
z"/>
<path fill="#FDFDFD" opacity="1.000000" stroke="none" 
	d="
M3392.389648,659.755066 
	C3369.659912,643.880554 3359.099121,621.480957 3354.382812,595.856995 
	C3351.379150,579.537903 3350.206055,563.020142 3350.252930,546.368652 
	C3350.433350,482.417633 3350.325928,418.465851 3350.326172,354.514343 
	C3350.326172,352.182800 3350.185059,349.840149 3350.360352,347.521698 
	C3350.934570,339.937164 3353.680420,336.698273 3361.424561,336.128021 
	C3369.707520,335.518066 3378.054688,335.733185 3386.374023,335.676636 
	C3395.033936,335.617798 3403.698486,335.490204 3412.353271,335.708069 
	C3423.982178,336.000793 3426.324463,338.449158 3426.329346,349.994995 
	C3426.357666,414.612640 3426.198975,479.230957 3426.492432,543.847290 
	C3426.538818,554.035278 3427.800781,564.369507 3429.834229,574.364929 
	C3433.950195,594.595825 3445.297852,604.736938 3465.451660,608.034119 
	C3474.895020,609.579041 3484.584229,610.202576 3494.165039,610.230469 
	C3557.782959,610.415710 3621.401611,610.325500 3685.020020,610.329529 
	C3687.684082,610.329712 3690.385254,610.102112 3693.004395,610.457703 
	C3698.515381,611.205750 3701.527588,614.125977 3701.591553,619.610535 
	C3701.793457,636.928406 3701.807129,654.251831 3701.582764,671.569153 
	C3701.510498,677.132324 3698.403076,679.833252 3692.807129,680.295227 
	C3690.491211,680.486450 3688.146484,680.336121 3685.814941,680.336121 
	C3615.534912,680.336609 3545.254639,680.416748 3474.974854,680.293152 
	C3450.215576,680.249573 3426.029297,676.807922 3403.398193,665.961243 
	C3399.823486,664.248108 3396.456299,662.101929 3392.389648,659.755066 
z"/>
<path fill="#FDFDFD" opacity="1.000000" stroke="none" 
	d="
M3821.672852,462.000183 
	C3821.672852,529.964539 3821.673340,596.928955 3821.671143,663.893311 
	C3821.670898,666.558044 3821.922607,669.260071 3821.571777,671.879761 
	C3820.821777,677.480286 3818.051758,680.216919 3812.354492,680.267151 
	C3793.366211,680.434753 3774.374023,680.450562 3755.386230,680.262573 
	C3748.938965,680.198792 3746.419189,677.543396 3745.758545,671.244934 
	C3745.516357,668.936462 3745.661377,666.585510 3745.661377,664.253906 
	C3745.657959,560.309204 3745.658203,456.364471 3745.658936,352.419739 
	C3745.658936,350.420837 3745.538086,348.411438 3745.697754,346.424927 
	C3746.203369,340.133698 3748.418945,337.426605 3754.596924,336.356140 
	C3758.176025,335.736084 3761.885254,335.711670 3765.537109,335.692902 
	C3779.196045,335.622711 3792.857178,335.529480 3806.514404,335.705658 
	C3819.086182,335.867828 3821.653564,338.571320 3821.663086,351.058502 
	C3821.690918,387.705719 3821.672852,424.352936 3821.672852,462.000183 
z"/>
<path fill="#030303" opacity="1.000000" stroke="none" 
	d="
M575.195190,638.820740 
	C577.452759,638.470459 579.709778,637.819641 581.968018,637.815125 
	C614.608704,637.749939 647.249634,637.767761 679.890442,637.786011 
	C681.205505,637.786743 682.520508,637.987549 684.925354,638.184265 
	C684.925354,673.982971 684.925354,709.716064 684.925354,746.156250 
	C721.529053,746.156250 757.041443,746.156250 792.342834,746.156250 
	C794.645020,754.274170 795.444824,826.881897 793.729431,854.176758 
	C786.603760,856.130737 708.783508,856.881287 685.525146,855.147339 
	C685.525146,819.362854 685.525146,783.496826 685.525146,746.720764 
	C648.883850,746.720764 613.089478,746.720764 576.079651,746.720764 
	C576.079651,710.626892 576.079651,675.439392 575.703003,639.471191 
	C575.326355,638.690369 575.195190,638.820740 575.195190,638.820740 
z"/>
<path fill="#010101" opacity="1.000000" stroke="none" 
	d="
M357.694031,420.431274 
	C343.735931,420.259277 329.778198,419.991699 315.819641,419.937408 
	C294.230194,419.853455 272.640167,419.915253 250.359833,419.915253 
	C250.359833,347.387268 250.359833,275.346619 250.359833,202.621246 
	C285.736053,202.621246 321.452637,202.621246 358.169830,202.621246 
	C358.169830,274.734772 358.169830,346.833252 357.857971,419.755066 
	C357.546143,420.578369 357.694031,420.431274 357.694031,420.431274 
z"/>
<path fill="#010101" opacity="1.000000" stroke="none" 
	d="
M687.056274,421.237640 
	C686.451721,418.069397 685.323120,414.901733 685.319641,411.732849 
	C685.244690,343.085785 685.295227,274.438568 686.050415,204.739136 
	C687.320679,203.378082 687.719116,202.939270 687.974487,202.370468 
	C711.920837,202.225891 735.867126,202.061249 759.813660,201.945740 
	C770.769043,201.892899 781.724854,201.936752 793.395508,201.936752 
	C793.395508,274.374786 793.395508,346.408936 793.395508,419.794952 
	C758.653259,419.872345 723.539429,419.950531 687.683472,420.603577 
	C686.941345,421.178406 687.056274,421.237640 687.056274,421.237640 
z"/>
<path fill="#030303" opacity="1.000000" stroke="none" 
	d="
M469.006317,527.114319 
	C466.458984,527.624878 463.912933,528.572632 461.364166,528.579834 
	C428.477234,528.672852 395.589966,528.635315 362.702759,528.608459 
	C361.721771,528.607666 360.740967,528.363831 358.343964,528.044861 
	C358.306061,492.816925 358.268036,457.454529 357.962006,421.261719 
	C357.694031,420.431274 357.546143,420.578369 357.455841,420.665894 
	C359.316772,420.467590 361.267609,419.935669 363.219269,419.932678 
	C396.192078,419.882080 429.165009,419.893555 462.137909,419.911896 
	C463.456635,419.912628 464.775269,420.116455 467.353668,420.329956 
	C467.451111,455.515228 467.548462,490.675903 468.295349,526.506775 
	C468.944855,527.176941 469.006317,527.114319 469.006317,527.114319 
z"/>
<path fill="#030303" opacity="1.000000" stroke="none" 
	d="
M575.196289,527.176941 
	C575.512390,523.930115 576.094849,520.683899 576.102905,517.436279 
	C576.174500,488.545349 576.144592,459.654175 576.144592,430.763062 
	C576.144592,427.512360 576.144592,424.261658 576.144592,420.202728 
	C612.992432,420.202728 649.062561,420.202728 686.094482,420.720184 
	C687.056274,421.237640 686.941345,421.178406 686.981445,421.154297 
	C686.434204,424.164520 685.349792,427.196594 685.336365,430.233429 
	C685.207703,459.510101 685.259399,488.787537 685.259460,518.064758 
	C685.259460,521.310364 685.259399,524.555969 685.259399,528.271423 
	C648.361206,528.271423 612.496399,528.271423 575.870544,527.690186 
	C575.109558,527.108887 575.196289,527.176941 575.196289,527.176941 
z"/>
<path fill="#030303" opacity="1.000000" stroke="none" 
	d="
M575.385254,638.619080 
	C572.160950,638.299133 568.878296,637.841064 565.594666,637.834656 
	C536.607727,637.778137 507.620544,637.801941 478.633453,637.801941 
	C475.341095,637.801941 472.048737,637.801880 469.151093,637.801880 
	C468.393066,636.792969 467.706940,636.305908 467.707184,635.819275 
	C467.725037,600.182373 467.797272,564.545532 468.435730,528.011475 
	C469.006317,527.114319 468.944855,527.176941 468.928467,527.165527 
	C470.712555,527.639160 472.512421,528.544556 474.313507,528.546875 
	C507.523987,528.589600 540.734619,528.524414 574.570740,527.829468 
	C575.196289,527.176941 575.109558,527.108887 575.058228,527.055420 
	C575.391541,529.242371 576.108948,531.482422 576.110901,533.723145 
	C576.140747,568.097778 576.077332,602.472473 575.615417,637.833984 
	C575.195190,638.820740 575.326355,638.690369 575.385254,638.619080 
z"/>
<path fill="#030303" opacity="1.000000" stroke="none" 
	d="
M357.087646,744.982544 
	C357.485840,747.230103 358.225861,749.476807 358.230896,751.725281 
	C358.304901,784.650757 358.284790,817.576477 358.265564,850.502136 
	C358.264801,851.811157 358.050629,853.120056 357.881653,855.047852 
	C322.071564,855.047852 286.369202,855.047852 250.159836,855.047852 
	C250.159836,819.058960 250.159836,783.295349 250.159836,746.274414 
	C285.486145,746.274414 320.629944,746.274414 356.464142,745.664307 
	C357.154510,745.054199 357.087646,744.982544 357.087646,744.982544 
z"/>
<path fill="#030303" opacity="1.000000" stroke="none" 
	d="
M466.970734,639.689087 
	C467.145172,660.906006 467.360809,682.122742 467.479370,703.339966 
	C467.556976,717.228699 467.494019,731.118164 467.494019,746.171875 
	C430.890930,746.171875 394.888184,746.171875 357.986542,745.577209 
	C357.087646,744.982544 357.154510,745.054199 357.161652,745.081177 
	C357.534088,741.896057 358.207367,738.684875 358.216522,735.471863 
	C358.298950,706.572510 358.264709,677.672729 358.264709,648.773132 
	C358.264709,645.511841 358.264709,642.250488 358.264709,637.810059 
	C393.363251,637.810059 427.774445,637.810059 463.483459,638.445557 
	C465.511108,639.283752 466.240936,639.486450 466.970734,639.689087 
z"/>
<path fill="#030303" opacity="1.000000" stroke="none" 
	d="
M687.385986,202.245453 
	C687.719116,202.939270 687.320679,203.378082 686.357483,203.846130 
	C686.223083,203.377045 686.510315,202.748749 687.385986,202.245453 
z"/>
<path fill="#030303" opacity="1.000000" stroke="none" 
	d="
M466.889526,638.971924 
	C466.240936,639.486450 465.511108,639.283752 464.403931,638.644043 
	C464.953827,638.222839 465.881073,638.238831 466.889526,638.971924 
z"/>
<path fill="#010101" opacity="1.000000" stroke="none" 
	d="
M2369.632812,440.963013 
	C2370.599365,454.030182 2372.110352,466.259064 2372.200928,478.498444 
	C2372.405518,506.136353 2372.017822,533.781128 2371.599609,561.419006 
	C2371.520264,566.673828 2370.570312,571.998840 2369.367676,577.138306 
	C2364.942627,596.048950 2352.114990,607.237793 2331.501465,609.923523 
	C2323.306396,610.991211 2314.989746,611.570129 2306.726074,611.594849 
	C2256.745361,611.744568 2206.763184,611.816956 2156.783691,611.527100 
	C2148.256592,611.477661 2139.651611,610.020508 2131.238037,608.403625 
	C2113.573486,605.008850 2103.372803,593.554565 2099.952637,576.385254 
	C2097.957275,566.368469 2096.693115,556.062500 2096.495361,545.859558 
	C2096.011230,520.878418 2096.051270,495.876862 2096.457031,470.892914 
	C2096.660889,458.335327 2097.685547,445.765167 2101.936035,433.685913 
	C2106.216064,421.521973 2114.075928,413.005524 2126.634277,409.873779 
	C2134.935791,407.803528 2143.552002,405.904388 2152.040039,405.849579 
	C2207.016846,405.494720 2261.997314,405.626495 2316.976318,405.733948 
	C2322.245605,405.744232 2327.544434,406.464020 2332.775635,407.225525 
	C2352.254639,410.061066 2364.842285,420.714111 2369.632812,440.963013 
z"/>
<path fill="#030303" opacity="1.000000" stroke="none" 
	d="
M1755.999756,511.681030 
	C1725.117554,511.681030 1695.235352,511.681030 1664.325684,511.681030 
	C1664.325684,508.187164 1664.325684,505.623901 1664.325684,503.060669 
	C1664.325684,474.089447 1664.307495,445.118164 1664.334961,416.146973 
	C1664.345703,404.830688 1664.847900,404.330475 1676.263428,404.327148 
	C1736.203857,404.309692 1796.144653,404.244446 1856.084473,404.436371 
	C1861.960815,404.455170 1867.989014,405.543854 1873.675659,407.116272 
	C1889.876831,411.596161 1896.143066,424.578339 1897.190186,439.428925 
	C1898.209351,453.883850 1897.519409,468.679352 1895.602051,483.061707 
	C1893.524536,498.647797 1882.108887,508.455048 1866.689941,510.217987 
	C1858.483398,511.156250 1850.179199,511.569702 1841.915405,511.617828 
	C1813.611084,511.782623 1785.305176,511.681030 1755.999756,511.681030 
z"/>
</svg>